<svg width="1200" height="400" viewBox="0 0 1200 400" fill="none" xmlns="http://www.w3.org/2000/svg">
  <rect width="1200" height="400" fill="#F8FAFC"/>
  <defs>
    <linearGradient id="g2" x1="0" y1="0" x2="1" y2="0">
      <stop offset="0" stop-color="#8B6B00" stop-opacity="0.12"/>
      <stop offset="1" stop-color="#8B6B00" stop-opacity="0.04"/>
    </linearGradient>
    <pattern id="grid2" width="32" height="32" patternUnits="userSpaceOnUse">
      <path d="M32 0H0V32" stroke="#E2E8F0" stroke-width="1"/>
    </pattern>
  </defs>
  <rect width="1200" height="400" fill="url(#grid2)"/>
  <rect x="80" y="60" width="1040" height="280" rx="20" fill="white" stroke="#E5E7EB"/>
  <rect x="80" y="60" width="1040" height="80" rx="20" fill="url(#g2)"/>
  <text x="100" y="105" font-family="Arial, sans-serif" font-size="24" font-weight="bold" fill="#8B6B00">Fintech API Reliability Program</text>
  <text x="100" y="132" font-family="Arial, sans-serif" font-size="14" fill="#64748B">Coverage up 32% · P99 latency improved 18%</text>

  <rect x="120" y="170" width="220" height="140" rx="12" fill="#F1F5F9" stroke="#CBD5E1"/>
  <text x="230" y="200" text-anchor="middle" font-family="Arial, sans-serif" font-size="14" fill="#334155">Coverage</text>
  <circle cx="180" cy="240" r="40" fill="none" stroke="#E2E8F0" stroke-width="8"/>
  <circle cx="180" cy="240" r="40" fill="none" stroke="#8B6B00" stroke-width="8" stroke-dasharray="251 314" stroke-dashoffset="46"/>
  <text x="180" y="245" text-anchor="middle" font-family="Arial, sans-serif" font-size="16" font-weight="bold" fill="#8B6B00">+32%</text>

  <rect x="380" y="170" width="220" height="140" rx="12" fill="#EEF2FF" stroke="#C7D2FE"/>
  <text x="490" y="200" text-anchor="middle" font-family="Arial, sans-serif" font-size="14" fill="#3730A3">Latency P99</text>
  <text x="490" y="240" text-anchor="middle" font-family="Arial, sans-serif" font-size="28" font-weight="bold" fill="#6366F1">-18%</text>

  <rect x="640" y="170" width="220" height="140" rx="12" fill="#FEF7ED" stroke="#FED7AA"/>
  <text x="750" y="200" text-anchor="middle" font-family="Arial, sans-serif" font-size="14" fill="#9A3412">Incidents</text>
  <rect x="680" y="230" width="30" height="60" rx="4" fill="#FDBA74"/>
  <rect x="720" y="240" width="30" height="50" rx="4" fill="#FB923C"/>
  <rect x="760" y="250" width="30" height="40" rx="4" fill="#F97316"/>
  <text x="750" y="265" text-anchor="middle" font-family="Arial, sans-serif" font-size="12" fill="#9A3412">-24%</text>

  <rect x="900" y="170" width="220" height="140" rx="12" fill="#ECFDF5" stroke="#A7F3D0"/>
  <text x="1010" y="200" text-anchor="middle" font-family="Arial, sans-serif" font-size="14" fill="#065F46">Error budget</text>
  <text x="1010" y="240" text-anchor="middle" font-family="Arial, sans-serif" font-size="28" font-weight="bold" fill="#10B981">+15%</text>
</svg>
